<?xml version="1.0" encoding="utf-8" standalone="no"?>
<!DOCTYPE svg PUBLIC "-//W3C//DTD SVG 1.1//EN"
  "http://www.w3.org/Graphics/SVG/1.1/DTD/svg11.dtd">
<svg xmlns:xlink="http://www.w3.org/1999/xlink" width="576pt" height="288pt" viewBox="0 0 576 288" xmlns="http://www.w3.org/2000/svg" version="1.1">
 <metadata>
  <rdf:RDF xmlns:dc="http://purl.org/dc/elements/1.1/" xmlns:cc="http://creativecommons.org/ns#" xmlns:rdf="http://www.w3.org/1999/02/22-rdf-syntax-ns#">
   <cc:Work>
    <dc:type rdf:resource="http://purl.org/dc/dcmitype/StillImage"/>
    <dc:date>2022-08-10T17:16:08.690320</dc:date>
    <dc:format>image/svg+xml</dc:format>
    <dc:creator>
     <cc:Agent>
      <dc:title>Matplotlib v3.5.1, https://matplotlib.org/</dc:title>
     </cc:Agent>
    </dc:creator>
   </cc:Work>
  </rdf:RDF>
 </metadata>
 <defs>
  <style type="text/css">*{stroke-linejoin: round; stroke-linecap: butt}</style>
 </defs>
 <g id="figure_1">
  <g id="patch_1">
   <path d="M 0 288 
L 576 288 
L 576 0 
L 0 0 
z
" style="fill: #ffffff"/>
  </g>
  <g id="axes_1">
   <g id="patch_2">
    <path d="M 57.332 237.16 
L 565.2 237.16 
L 565.2 10.8 
L 57.332 10.8 
z
" style="fill: #ffffff"/>
   </g>
   <g id="matplotlib.axis_1">
    <g id="xtick_1">
     <g id="line2d_1">
      <defs>
       <path id="mc412c2d1bd" d="M 0 0 
L 0 3.5 
" style="stroke: #000000; stroke-width: 0.8"/>
      </defs>
      <g>
       <use xlink:href="#mc412c2d1bd" x="80.416909" y="237.16" style="stroke: #000000; stroke-width: 0.8"/>
      </g>
     </g>
     <g id="text_1">
      <!-- 0 -->
      <g transform="translate(77.235659 251.758438)scale(0.1 -0.1)">
       <defs>
        <path id="DejaVuSans-30" d="M 2034 4250 
Q 1547 4250 1301 3770 
Q 1056 3291 1056 2328 
Q 1056 1369 1301 889 
Q 1547 409 2034 409 
Q 2525 409 2770 889 
Q 3016 1369 3016 2328 
Q 3016 3291 2770 3770 
Q 2525 4250 2034 4250 
z
M 2034 4750 
Q 2819 4750 3233 4129 
Q 3647 3509 3647 2328 
Q 3647 1150 3233 529 
Q 2819 -91 2034 -91 
Q 1250 -91 836 529 
Q 422 1150 422 2328 
Q 422 3509 836 4129 
Q 1250 4750 2034 4750 
z
" transform="scale(0.015625)"/>
       </defs>
       <use xlink:href="#DejaVuSans-30"/>
      </g>
     </g>
    </g>
    <g id="xtick_2">
     <g id="line2d_2">
      <g>
       <use xlink:href="#mc412c2d1bd" x="153.125284" y="237.16" style="stroke: #000000; stroke-width: 0.8"/>
      </g>
     </g>
     <g id="text_2">
      <!-- 20 -->
      <g transform="translate(146.762784 251.758438)scale(0.1 -0.1)">
       <defs>
        <path id="DejaVuSans-32" d="M 1228 531 
L 3431 531 
L 3431 0 
L 469 0 
L 469 531 
Q 828 903 1448 1529 
Q 2069 2156 2228 2338 
Q 2531 2678 2651 2914 
Q 2772 3150 2772 3378 
Q 2772 3750 2511 3984 
Q 2250 4219 1831 4219 
Q 1534 4219 1204 4116 
Q 875 4013 500 3803 
L 500 4441 
Q 881 4594 1212 4672 
Q 1544 4750 1819 4750 
Q 2544 4750 2975 4387 
Q 3406 4025 3406 3419 
Q 3406 3131 3298 2873 
Q 3191 2616 2906 2266 
Q 2828 2175 2409 1742 
Q 1991 1309 1228 531 
z
" transform="scale(0.015625)"/>
       </defs>
       <use xlink:href="#DejaVuSans-32"/>
       <use xlink:href="#DejaVuSans-30" x="63.623047"/>
      </g>
     </g>
    </g>
    <g id="xtick_3">
     <g id="line2d_3">
      <g>
       <use xlink:href="#mc412c2d1bd" x="225.833659" y="237.16" style="stroke: #000000; stroke-width: 0.8"/>
      </g>
     </g>
     <g id="text_3">
      <!-- 40 -->
      <g transform="translate(219.471159 251.758438)scale(0.1 -0.1)">
       <defs>
        <path id="DejaVuSans-34" d="M 2419 4116 
L 825 1625 
L 2419 1625 
L 2419 4116 
z
M 2253 4666 
L 3047 4666 
L 3047 1625 
L 3713 1625 
L 3713 1100 
L 3047 1100 
L 3047 0 
L 2419 0 
L 2419 1100 
L 313 1100 
L 313 1709 
L 2253 4666 
z
" transform="scale(0.015625)"/>
       </defs>
       <use xlink:href="#DejaVuSans-34"/>
       <use xlink:href="#DejaVuSans-30" x="63.623047"/>
      </g>
     </g>
    </g>
    <g id="xtick_4">
     <g id="line2d_4">
      <g>
       <use xlink:href="#mc412c2d1bd" x="298.542034" y="237.16" style="stroke: #000000; stroke-width: 0.8"/>
      </g>
     </g>
     <g id="text_4">
      <!-- 60 -->
      <g transform="translate(292.179534 251.758438)scale(0.1 -0.1)">
       <defs>
        <path id="DejaVuSans-36" d="M 2113 2584 
Q 1688 2584 1439 2293 
Q 1191 2003 1191 1497 
Q 1191 994 1439 701 
Q 1688 409 2113 409 
Q 2538 409 2786 701 
Q 3034 994 3034 1497 
Q 3034 2003 2786 2293 
Q 2538 2584 2113 2584 
z
M 3366 4563 
L 3366 3988 
Q 3128 4100 2886 4159 
Q 2644 4219 2406 4219 
Q 1781 4219 1451 3797 
Q 1122 3375 1075 2522 
Q 1259 2794 1537 2939 
Q 1816 3084 2150 3084 
Q 2853 3084 3261 2657 
Q 3669 2231 3669 1497 
Q 3669 778 3244 343 
Q 2819 -91 2113 -91 
Q 1303 -91 875 529 
Q 447 1150 447 2328 
Q 447 3434 972 4092 
Q 1497 4750 2381 4750 
Q 2619 4750 2861 4703 
Q 3103 4656 3366 4563 
z
" transform="scale(0.015625)"/>
       </defs>
       <use xlink:href="#DejaVuSans-36"/>
       <use xlink:href="#DejaVuSans-30" x="63.623047"/>
      </g>
     </g>
    </g>
    <g id="xtick_5">
     <g id="line2d_5">
      <g>
       <use xlink:href="#mc412c2d1bd" x="371.250409" y="237.16" style="stroke: #000000; stroke-width: 0.8"/>
      </g>
     </g>
     <g id="text_5">
      <!-- 80 -->
      <g transform="translate(364.887909 251.758438)scale(0.1 -0.1)">
       <defs>
        <path id="DejaVuSans-38" d="M 2034 2216 
Q 1584 2216 1326 1975 
Q 1069 1734 1069 1313 
Q 1069 891 1326 650 
Q 1584 409 2034 409 
Q 2484 409 2743 651 
Q 3003 894 3003 1313 
Q 3003 1734 2745 1975 
Q 2488 2216 2034 2216 
z
M 1403 2484 
Q 997 2584 770 2862 
Q 544 3141 544 3541 
Q 544 4100 942 4425 
Q 1341 4750 2034 4750 
Q 2731 4750 3128 4425 
Q 3525 4100 3525 3541 
Q 3525 3141 3298 2862 
Q 3072 2584 2669 2484 
Q 3125 2378 3379 2068 
Q 3634 1759 3634 1313 
Q 3634 634 3220 271 
Q 2806 -91 2034 -91 
Q 1263 -91 848 271 
Q 434 634 434 1313 
Q 434 1759 690 2068 
Q 947 2378 1403 2484 
z
M 1172 3481 
Q 1172 3119 1398 2916 
Q 1625 2713 2034 2713 
Q 2441 2713 2670 2916 
Q 2900 3119 2900 3481 
Q 2900 3844 2670 4047 
Q 2441 4250 2034 4250 
Q 1625 4250 1398 4047 
Q 1172 3844 1172 3481 
z
" transform="scale(0.015625)"/>
       </defs>
       <use xlink:href="#DejaVuSans-38"/>
       <use xlink:href="#DejaVuSans-30" x="63.623047"/>
      </g>
     </g>
    </g>
    <g id="xtick_6">
     <g id="line2d_6">
      <g>
       <use xlink:href="#mc412c2d1bd" x="443.958785" y="237.16" style="stroke: #000000; stroke-width: 0.8"/>
      </g>
     </g>
     <g id="text_6">
      <!-- 100 -->
      <g transform="translate(434.415035 251.758438)scale(0.1 -0.1)">
       <defs>
        <path id="DejaVuSans-31" d="M 794 531 
L 1825 531 
L 1825 4091 
L 703 3866 
L 703 4441 
L 1819 4666 
L 2450 4666 
L 2450 531 
L 3481 531 
L 3481 0 
L 794 0 
L 794 531 
z
" transform="scale(0.015625)"/>
       </defs>
       <use xlink:href="#DejaVuSans-31"/>
       <use xlink:href="#DejaVuSans-30" x="63.623047"/>
       <use xlink:href="#DejaVuSans-30" x="127.246094"/>
      </g>
     </g>
    </g>
    <g id="xtick_7">
     <g id="line2d_7">
      <g>
       <use xlink:href="#mc412c2d1bd" x="516.66716" y="237.16" style="stroke: #000000; stroke-width: 0.8"/>
      </g>
     </g>
     <g id="text_7">
      <!-- 120 -->
      <g transform="translate(507.12341 251.758438)scale(0.1 -0.1)">
       <use xlink:href="#DejaVuSans-31"/>
       <use xlink:href="#DejaVuSans-32" x="63.623047"/>
       <use xlink:href="#DejaVuSans-30" x="127.246094"/>
      </g>
     </g>
    </g>
    <g id="text_8">
     <!--  t(Trials) -->
     <g transform="translate(270.726937 273.035)scale(0.2 -0.2)">
      <defs>
       <path id="DejaVuSans-20" transform="scale(0.015625)"/>
       <path id="DejaVuSans-74" d="M 1172 4494 
L 1172 3500 
L 2356 3500 
L 2356 3053 
L 1172 3053 
L 1172 1153 
Q 1172 725 1289 603 
Q 1406 481 1766 481 
L 2356 481 
L 2356 0 
L 1766 0 
Q 1100 0 847 248 
Q 594 497 594 1153 
L 594 3053 
L 172 3053 
L 172 3500 
L 594 3500 
L 594 4494 
L 1172 4494 
z
" transform="scale(0.015625)"/>
       <path id="DejaVuSans-28" d="M 1984 4856 
Q 1566 4138 1362 3434 
Q 1159 2731 1159 2009 
Q 1159 1288 1364 580 
Q 1569 -128 1984 -844 
L 1484 -844 
Q 1016 -109 783 600 
Q 550 1309 550 2009 
Q 550 2706 781 3412 
Q 1013 4119 1484 4856 
L 1984 4856 
z
" transform="scale(0.015625)"/>
       <path id="DejaVuSans-54" d="M -19 4666 
L 3928 4666 
L 3928 4134 
L 2272 4134 
L 2272 0 
L 1638 0 
L 1638 4134 
L -19 4134 
L -19 4666 
z
" transform="scale(0.015625)"/>
       <path id="DejaVuSans-72" d="M 2631 2963 
Q 2534 3019 2420 3045 
Q 2306 3072 2169 3072 
Q 1681 3072 1420 2755 
Q 1159 2438 1159 1844 
L 1159 0 
L 581 0 
L 581 3500 
L 1159 3500 
L 1159 2956 
Q 1341 3275 1631 3429 
Q 1922 3584 2338 3584 
Q 2397 3584 2469 3576 
Q 2541 3569 2628 3553 
L 2631 2963 
z
" transform="scale(0.015625)"/>
       <path id="DejaVuSans-69" d="M 603 3500 
L 1178 3500 
L 1178 0 
L 603 0 
L 603 3500 
z
M 603 4863 
L 1178 4863 
L 1178 4134 
L 603 4134 
L 603 4863 
z
" transform="scale(0.015625)"/>
       <path id="DejaVuSans-61" d="M 2194 1759 
Q 1497 1759 1228 1600 
Q 959 1441 959 1056 
Q 959 750 1161 570 
Q 1363 391 1709 391 
Q 2188 391 2477 730 
Q 2766 1069 2766 1631 
L 2766 1759 
L 2194 1759 
z
M 3341 1997 
L 3341 0 
L 2766 0 
L 2766 531 
Q 2569 213 2275 61 
Q 1981 -91 1556 -91 
Q 1019 -91 701 211 
Q 384 513 384 1019 
Q 384 1609 779 1909 
Q 1175 2209 1959 2209 
L 2766 2209 
L 2766 2266 
Q 2766 2663 2505 2880 
Q 2244 3097 1772 3097 
Q 1472 3097 1187 3025 
Q 903 2953 641 2809 
L 641 3341 
Q 956 3463 1253 3523 
Q 1550 3584 1831 3584 
Q 2591 3584 2966 3190 
Q 3341 2797 3341 1997 
z
" transform="scale(0.015625)"/>
       <path id="DejaVuSans-6c" d="M 603 4863 
L 1178 4863 
L 1178 0 
L 603 0 
L 603 4863 
z
" transform="scale(0.015625)"/>
       <path id="DejaVuSans-73" d="M 2834 3397 
L 2834 2853 
Q 2591 2978 2328 3040 
Q 2066 3103 1784 3103 
Q 1356 3103 1142 2972 
Q 928 2841 928 2578 
Q 928 2378 1081 2264 
Q 1234 2150 1697 2047 
L 1894 2003 
Q 2506 1872 2764 1633 
Q 3022 1394 3022 966 
Q 3022 478 2636 193 
Q 2250 -91 1575 -91 
Q 1294 -91 989 -36 
Q 684 19 347 128 
L 347 722 
Q 666 556 975 473 
Q 1284 391 1588 391 
Q 1994 391 2212 530 
Q 2431 669 2431 922 
Q 2431 1156 2273 1281 
Q 2116 1406 1581 1522 
L 1381 1569 
Q 847 1681 609 1914 
Q 372 2147 372 2553 
Q 372 3047 722 3315 
Q 1072 3584 1716 3584 
Q 2034 3584 2315 3537 
Q 2597 3491 2834 3397 
z
" transform="scale(0.015625)"/>
       <path id="DejaVuSans-29" d="M 513 4856 
L 1013 4856 
Q 1481 4119 1714 3412 
Q 1947 2706 1947 2009 
Q 1947 1309 1714 600 
Q 1481 -109 1013 -844 
L 513 -844 
Q 928 -128 1133 580 
Q 1338 1288 1338 2009 
Q 1338 2731 1133 3434 
Q 928 4138 513 4856 
z
" transform="scale(0.015625)"/>
      </defs>
      <use xlink:href="#DejaVuSans-20"/>
      <use xlink:href="#DejaVuSans-74" x="31.787109"/>
      <use xlink:href="#DejaVuSans-28" x="70.996094"/>
      <use xlink:href="#DejaVuSans-54" x="110.009766"/>
      <use xlink:href="#DejaVuSans-72" x="156.34375"/>
      <use xlink:href="#DejaVuSans-69" x="197.457031"/>
      <use xlink:href="#DejaVuSans-61" x="225.240234"/>
      <use xlink:href="#DejaVuSans-6c" x="286.519531"/>
      <use xlink:href="#DejaVuSans-73" x="314.302734"/>
      <use xlink:href="#DejaVuSans-29" x="366.402344"/>
     </g>
    </g>
   </g>
   <g id="matplotlib.axis_2">
    <g id="ytick_1">
     <g id="line2d_8">
      <defs>
       <path id="m8d50128cfc" d="M 0 0 
L -3.5 0 
" style="stroke: #000000; stroke-width: 0.8"/>
      </defs>
      <g>
       <use xlink:href="#m8d50128cfc" x="57.332" y="214.433332" style="stroke: #000000; stroke-width: 0.8"/>
      </g>
     </g>
     <g id="text_9">
      <!-- 0.2 -->
      <g transform="translate(34.428875 218.232551)scale(0.1 -0.1)">
       <defs>
        <path id="DejaVuSans-2e" d="M 684 794 
L 1344 794 
L 1344 0 
L 684 0 
L 684 794 
z
" transform="scale(0.015625)"/>
       </defs>
       <use xlink:href="#DejaVuSans-30"/>
       <use xlink:href="#DejaVuSans-2e" x="63.623047"/>
       <use xlink:href="#DejaVuSans-32" x="95.410156"/>
      </g>
     </g>
    </g>
    <g id="ytick_2">
     <g id="line2d_9">
      <g>
       <use xlink:href="#m8d50128cfc" x="57.332" y="185.157688" style="stroke: #000000; stroke-width: 0.8"/>
      </g>
     </g>
     <g id="text_10">
      <!-- 0.4 -->
      <g transform="translate(34.428875 188.956907)scale(0.1 -0.1)">
       <use xlink:href="#DejaVuSans-30"/>
       <use xlink:href="#DejaVuSans-2e" x="63.623047"/>
       <use xlink:href="#DejaVuSans-34" x="95.410156"/>
      </g>
     </g>
    </g>
    <g id="ytick_3">
     <g id="line2d_10">
      <g>
       <use xlink:href="#m8d50128cfc" x="57.332" y="155.882045" style="stroke: #000000; stroke-width: 0.8"/>
      </g>
     </g>
     <g id="text_11">
      <!-- 0.6 -->
      <g transform="translate(34.428875 159.681263)scale(0.1 -0.1)">
       <use xlink:href="#DejaVuSans-30"/>
       <use xlink:href="#DejaVuSans-2e" x="63.623047"/>
       <use xlink:href="#DejaVuSans-36" x="95.410156"/>
      </g>
     </g>
    </g>
    <g id="ytick_4">
     <g id="line2d_11">
      <g>
       <use xlink:href="#m8d50128cfc" x="57.332" y="126.606401" style="stroke: #000000; stroke-width: 0.8"/>
      </g>
     </g>
     <g id="text_12">
      <!-- 0.8 -->
      <g transform="translate(34.428875 130.40562)scale(0.1 -0.1)">
       <use xlink:href="#DejaVuSans-30"/>
       <use xlink:href="#DejaVuSans-2e" x="63.623047"/>
       <use xlink:href="#DejaVuSans-38" x="95.410156"/>
      </g>
     </g>
    </g>
    <g id="ytick_5">
     <g id="line2d_12">
      <g>
       <use xlink:href="#m8d50128cfc" x="57.332" y="97.330757" style="stroke: #000000; stroke-width: 0.8"/>
      </g>
     </g>
     <g id="text_13">
      <!-- 1.0 -->
      <g transform="translate(34.428875 101.129976)scale(0.1 -0.1)">
       <use xlink:href="#DejaVuSans-31"/>
       <use xlink:href="#DejaVuSans-2e" x="63.623047"/>
       <use xlink:href="#DejaVuSans-30" x="95.410156"/>
      </g>
     </g>
    </g>
    <g id="ytick_6">
     <g id="line2d_13">
      <g>
       <use xlink:href="#m8d50128cfc" x="57.332" y="68.055114" style="stroke: #000000; stroke-width: 0.8"/>
      </g>
     </g>
     <g id="text_14">
      <!-- 1.2 -->
      <g transform="translate(34.428875 71.854332)scale(0.1 -0.1)">
       <use xlink:href="#DejaVuSans-31"/>
       <use xlink:href="#DejaVuSans-2e" x="63.623047"/>
       <use xlink:href="#DejaVuSans-32" x="95.410156"/>
      </g>
     </g>
    </g>
    <g id="ytick_7">
     <g id="line2d_14">
      <g>
       <use xlink:href="#m8d50128cfc" x="57.332" y="38.77947" style="stroke: #000000; stroke-width: 0.8"/>
      </g>
     </g>
     <g id="text_15">
      <!-- 1.4 -->
      <g transform="translate(34.428875 42.578689)scale(0.1 -0.1)">
       <use xlink:href="#DejaVuSans-31"/>
       <use xlink:href="#DejaVuSans-2e" x="63.623047"/>
       <use xlink:href="#DejaVuSans-34" x="95.410156"/>
      </g>
     </g>
    </g>
    <g id="text_16">
     <!-- $a_i(t)$ -->
     <g transform="translate(26.2695 144.08)rotate(-90)scale(0.2 -0.2)">
      <defs>
       <path id="DejaVuSans-Oblique-61" d="M 3438 1997 
L 3047 0 
L 2472 0 
L 2578 531 
Q 2325 219 2001 64 
Q 1678 -91 1281 -91 
Q 834 -91 548 182 
Q 263 456 263 884 
Q 263 1497 752 1853 
Q 1241 2209 2100 2209 
L 2900 2209 
L 2931 2363 
Q 2938 2388 2941 2417 
Q 2944 2447 2944 2509 
Q 2944 2788 2717 2942 
Q 2491 3097 2081 3097 
Q 1800 3097 1504 3025 
Q 1209 2953 897 2809 
L 997 3341 
Q 1322 3463 1633 3523 
Q 1944 3584 2234 3584 
Q 2853 3584 3176 3315 
Q 3500 3047 3500 2534 
Q 3500 2431 3484 2292 
Q 3469 2153 3438 1997 
z
M 2816 1759 
L 2241 1759 
Q 1534 1759 1195 1570 
Q 856 1381 856 984 
Q 856 709 1029 553 
Q 1203 397 1509 397 
Q 1978 397 2328 733 
Q 2678 1069 2791 1631 
L 2816 1759 
z
" transform="scale(0.015625)"/>
       <path id="DejaVuSans-Oblique-69" d="M 1172 4863 
L 1747 4863 
L 1606 4134 
L 1031 4134 
L 1172 4863 
z
M 909 3500 
L 1484 3500 
L 800 0 
L 225 0 
L 909 3500 
z
" transform="scale(0.015625)"/>
       <path id="DejaVuSans-Oblique-74" d="M 2706 3500 
L 2619 3053 
L 1472 3053 
L 1100 1153 
Q 1081 1047 1072 975 
Q 1063 903 1063 863 
Q 1063 663 1183 572 
Q 1303 481 1569 481 
L 2150 481 
L 2053 0 
L 1503 0 
Q 991 0 739 200 
Q 488 400 488 806 
Q 488 878 497 964 
Q 506 1050 525 1153 
L 897 3053 
L 409 3053 
L 500 3500 
L 978 3500 
L 1172 4494 
L 1747 4494 
L 1556 3500 
L 2706 3500 
z
" transform="scale(0.015625)"/>
      </defs>
      <use xlink:href="#DejaVuSans-Oblique-61" transform="translate(0 0.125)"/>
      <use xlink:href="#DejaVuSans-Oblique-69" transform="translate(61.279297 -16.28125)scale(0.7)"/>
      <use xlink:href="#DejaVuSans-28" transform="translate(83.461914 0.125)"/>
      <use xlink:href="#DejaVuSans-Oblique-74" transform="translate(122.475586 0.125)"/>
      <use xlink:href="#DejaVuSans-29" transform="translate(161.68457 0.125)"/>
     </g>
    </g>
   </g>
   <g id="line2d_15">
    <path d="M 80.416909 160.713522 
L 84.052328 125.29568 
L 87.687747 158.953791 
L 91.323165 132.272677 
L 94.958584 139.287914 
L 98.594003 108.866305 
L 102.229422 90.746674 
L 105.86484 134.973341 
L 109.500259 129.973987 
L 113.135678 116.791239 
L 116.771097 113.269071 
L 120.406515 110.302567 
L 124.041934 105.745671 
L 127.677353 112.060875 
L 131.312772 72.628222 
L 134.94819 84.097197 
L 138.583609 62.054877 
L 142.219028 101.71698 
L 145.854447 74.596688 
L 149.489865 78.506926 
L 153.125284 123.546984 
L 156.760703 97.573824 
L 160.396122 93.186052 
L 164.03154 89.396437 
L 167.666959 67.989067 
L 171.302378 86.427797 
L 174.937797 103.215406 
L 178.573215 96.294793 
L 182.208634 92.03728 
L 185.844053 89.65902 
L 189.479472 87.872854 
L 193.11489 84.816671 
L 196.750309 94.136144 
L 200.385728 78.582018 
L 204.021147 61.746844 
L 207.656565 70.303612 
L 211.291984 57.244256 
L 214.927403 66.426627 
L 218.562822 46.946867 
L 222.198241 82.957417 
L 225.833659 69.240413 
L 229.469078 50.539639 
L 233.104497 67.635615 
L 236.739916 75.326995 
L 240.375334 60.634044 
L 244.010753 71.883418 
L 247.646172 53.625545 
L 251.281591 60.779676 
L 254.917009 69.821563 
L 258.552428 63.183508 
L 262.187847 55.984561 
L 265.823266 65.136336 
L 269.458684 54.397686 
L 273.094103 50.041296 
L 276.729522 67.230719 
L 280.364941 50.033156 
L 284.000359 63.287735 
L 287.635778 68.248048 
L 291.271197 70.084579 
L 294.906616 34.671942 
L 298.542034 75.889855 
L 302.177453 57.546932 
L 305.812872 51.338034 
L 309.448291 45.862139 
L 313.083709 55.107085 
L 316.719128 38.065961 
L 320.354547 75.889862 
L 323.989966 64.517101 
L 327.625384 74.84029 
L 331.260803 62.056109 
L 334.896222 60.750342 
L 338.531641 65.991494 
L 342.167059 35.424044 
L 345.802478 52.770845 
L 349.437897 63.669414 
L 353.073316 41.9677 
L 356.708734 56.428678 
L 360.344153 62.512796 
L 363.979572 45.287688 
L 367.614991 48.43672 
L 371.250409 61.757517 
L 374.885828 65.010688 
L 378.521247 58.067336 
L 382.156666 57.021953 
L 385.792084 40.336314 
L 389.427503 70.695069 
L 393.062922 49.064793 
L 396.698341 50.410712 
L 400.333759 21.089091 
L 403.969178 65.674256 
L 407.604597 62.381187 
L 411.240016 43.511267 
L 414.875435 60.514254 
L 418.510853 62.801206 
L 422.146272 60.427566 
L 425.781691 60.238211 
L 429.41711 39.081769 
L 433.052528 48.991821 
L 436.687947 55.605161 
L 440.323366 41.678247 
L 443.958785 43.252354 
L 447.594203 55.671498 
L 451.229622 27.813997 
L 454.865041 39.816938 
L 458.50046 41.353335 
L 462.135878 55.339518 
L 465.771297 50.217329 
L 469.406716 41.493187 
L 473.042135 62.18525 
L 476.677553 54.137468 
L 480.312972 53.046142 
L 483.948391 56.939392 
L 487.58381 43.155037 
L 491.219228 47.435603 
L 494.854647 70.6477 
L 498.490066 48.844022 
L 502.125485 34.222041 
L 505.760903 49.8704 
L 509.396322 67.119142 
L 513.031741 62.641118 
L 516.66716 32.424799 
L 520.302578 35.159712 
L 523.937997 50.377651 
L 527.573416 46.06135 
L 531.208835 53.673059 
L 534.844253 67.979896 
L 538.479672 43.889378 
L 542.115091 41.977975 
L 542.115091 41.977975 
" clip-path="url(#p0da9be776b)" style="fill: none; stroke: #0000ff; stroke-width: 2; stroke-linecap: square"/>
   </g>
   <g id="line2d_16">
    <path d="M 80.416909 166.655254 
L 84.052328 192.352575 
L 87.687747 185.13189 
L 91.323165 178.719964 
L 94.958584 190.334271 
L 98.594003 143.638808 
L 102.229422 180.020126 
L 105.86484 174.746272 
L 109.500259 140.764249 
L 113.135678 147.430735 
L 116.771097 161.074532 
L 120.406515 139.129022 
L 124.041934 164.126792 
L 127.677353 133.474161 
L 131.312772 174.921326 
L 134.94819 164.674747 
L 138.583609 149.650452 
L 142.219028 113.838574 
L 145.854447 160.052262 
L 149.489865 116.554345 
L 153.125284 177.952513 
L 156.760703 160.132711 
L 160.396122 155.575084 
L 164.03154 119.581613 
L 167.666959 136.033746 
L 171.302378 122.596495 
L 174.937797 148.537005 
L 178.573215 142.061765 
L 182.208634 169.838755 
L 185.844053 155.694738 
L 189.479472 144.902558 
L 193.11489 93.445042 
L 196.750309 160.635923 
L 200.385728 144.580561 
L 204.021147 137.467855 
L 207.656565 129.361545 
L 211.291984 130.733734 
L 214.927403 149.019542 
L 218.562822 106.30123 
L 222.198241 146.088023 
L 225.833659 115.303076 
L 229.469078 81.543884 
L 233.104497 150.775952 
L 236.739916 103.006805 
L 240.375334 83.334845 
L 244.010753 137.664326 
L 247.646172 125.477294 
L 251.281591 144.803875 
L 254.917009 119.383978 
L 258.552428 74.438155 
L 262.187847 106.934282 
L 265.823266 109.650661 
L 269.458684 106.671082 
L 273.094103 84.080914 
L 276.729522 124.360937 
L 280.364941 73.173316 
L 284.000359 84.279424 
L 287.635778 134.065823 
L 291.271197 113.025493 
L 294.906616 137.309518 
L 298.542034 144.806287 
L 302.177453 102.659519 
L 305.812872 82.700154 
L 309.448291 108.850785 
L 313.083709 92.615723 
L 316.719128 99.494322 
L 320.354547 120.138226 
L 323.989966 100.293917 
L 327.625384 97.474569 
L 331.260803 124.613791 
L 334.896222 106.370393 
L 338.531641 82.020621 
L 342.167059 92.7342 
L 345.802478 94.041312 
L 349.437897 86.129434 
L 353.073316 85.933188 
L 356.708734 96.038043 
L 360.344153 104.917411 
L 363.979572 157.299411 
L 367.614991 83.677699 
L 371.250409 95.606376 
L 374.885828 134.695453 
L 378.521247 94.157697 
L 382.156666 83.988117 
L 385.792084 87.656916 
L 389.427503 138.536063 
L 393.062922 105.137674 
L 396.698341 90.316245 
L 400.333759 67.060573 
L 403.969178 83.929428 
L 407.604597 94.736189 
L 411.240016 77.664214 
L 414.875435 79.855276 
L 418.510853 119.017134 
L 422.146272 88.432584 
L 425.781691 81.801068 
L 429.41711 72.240242 
L 433.052528 90.077581 
L 436.687947 117.099133 
L 440.323366 82.3533 
L 443.958785 60.091299 
L 447.594203 130.196681 
L 451.229622 134.172459 
L 454.865041 80.683886 
L 458.50046 116.590661 
L 462.135878 70.103838 
L 465.771297 93.172841 
L 469.406716 85.419847 
L 473.042135 88.011976 
L 476.677553 99.032841 
L 480.312972 111.924443 
L 483.948391 86.104367 
L 487.58381 125.91845 
L 491.219228 64.916033 
L 494.854647 100.761991 
L 498.490066 62.947231 
L 502.125485 87.269377 
L 505.760903 81.902896 
L 509.396322 69.443226 
L 513.031741 75.198168 
L 516.66716 83.413694 
L 520.302578 76.932108 
L 523.937997 82.670273 
L 527.573416 58.072054 
L 531.208835 73.260695 
L 534.844253 81.794157 
L 538.479672 56.719136 
L 542.115091 91.766675 
L 542.115091 91.766675 
" clip-path="url(#p0da9be776b)" style="fill: none; stroke: #0000ff; stroke-width: 2; stroke-linecap: square"/>
   </g>
   <g id="line2d_17">
    <path d="M 80.416909 219.583841 
L 84.052328 215.236055 
L 87.687747 211.53739 
L 91.323165 206.220497 
L 94.958584 213.268755 
L 98.594003 211.534152 
L 102.229422 216.189276 
L 105.86484 209.553187 
L 109.500259 217.280379 
L 113.135678 196.427843 
L 116.771097 198.430015 
L 120.406515 222.668162 
L 124.041934 200.850494 
L 127.677353 205.115355 
L 131.312772 202.21605 
L 134.94819 201.930426 
L 138.583609 187.083046 
L 142.219028 204.124993 
L 145.854447 226.870909 
L 149.489865 182.382399 
L 153.125284 204.371749 
L 156.760703 177.457473 
L 160.396122 192.742158 
L 164.03154 204.533009 
L 167.666959 194.658384 
L 171.302378 178.368397 
L 174.937797 183.622775 
L 178.573215 196.715517 
L 182.208634 208.278097 
L 185.844053 196.717055 
L 189.479472 174.396765 
L 193.11489 174.303129 
L 196.750309 193.994116 
L 200.385728 183.795873 
L 204.021147 174.675991 
L 207.656565 180.078054 
L 211.291984 198.15983 
L 214.927403 199.502073 
L 218.562822 196.677764 
L 222.198241 208.640038 
L 225.833659 208.432626 
L 229.469078 173.336422 
L 233.104497 207.278341 
L 240.375334 184.018515 
L 244.010753 163.285797 
L 247.646172 166.405633 
L 251.281591 185.893095 
L 254.917009 153.917712 
L 258.552428 158.040205 
L 262.187847 178.893196 
L 265.823266 172.521504 
L 269.458684 187.517182 
L 273.094103 183.680205 
L 276.729522 181.258627 
L 280.364941 178.349515 
L 284.000359 192.480472 
L 287.635778 180.067945 
L 291.271197 190.102024 
L 294.906616 171.396929 
L 298.542034 170.933773 
L 302.177453 155.503946 
L 305.812872 170.043363 
L 309.448291 161.138465 
L 313.083709 167.10457 
L 316.719128 177.541099 
L 320.354547 198.592524 
L 323.989966 168.661192 
L 327.625384 191.981884 
L 331.260803 172.0964 
L 334.896222 180.979481 
L 338.531641 176.338646 
L 342.167059 167.780451 
L 345.802478 154.894311 
L 349.437897 176.38469 
L 353.073316 166.900412 
L 356.708734 159.140938 
L 360.344153 165.419506 
L 363.979572 187.648065 
L 367.614991 178.311359 
L 371.250409 177.346605 
L 374.885828 201.44924 
L 378.521247 174.980616 
L 382.156666 173.42584 
L 385.792084 183.464039 
L 389.427503 173.663795 
L 393.062922 173.414464 
L 396.698341 165.805518 
L 400.333759 161.213371 
L 403.969178 146.515672 
L 407.604597 173.717507 
L 411.240016 153.068604 
L 414.875435 180.581546 
L 418.510853 167.614413 
L 422.146272 141.463425 
L 425.781691 181.056748 
L 429.41711 176.706472 
L 433.052528 176.752446 
L 436.687947 185.857367 
L 440.323366 169.100933 
L 443.958785 145.924203 
L 447.594203 172.194881 
L 451.229622 170.456768 
L 454.865041 155.891941 
L 458.50046 164.788017 
L 462.135878 179.135608 
L 465.771297 153.191045 
L 469.406716 161.062794 
L 473.042135 175.917676 
L 476.677553 182.184828 
L 480.312972 176.156483 
L 483.948391 161.650615 
L 487.58381 156.021748 
L 491.219228 161.270463 
L 494.854647 152.239132 
L 498.490066 167.889143 
L 502.125485 187.88103 
L 505.760903 168.207578 
L 509.396322 152.151836 
L 513.031741 151.515243 
L 520.302578 156.075042 
L 523.937997 174.254071 
L 527.573416 134.781809 
L 531.208835 147.052102 
L 534.844253 167.636368 
L 538.479672 144.229976 
L 542.115091 154.713814 
L 542.115091 154.713814 
" clip-path="url(#p0da9be776b)" style="fill: none; stroke: #0000ff; stroke-width: 2; stroke-linecap: square"/>
   </g>
   <g id="patch_3">
    <path d="M 57.332 237.16 
L 57.332 10.8 
" style="fill: none; stroke: #000000; stroke-width: 0.8; stroke-linejoin: miter; stroke-linecap: square"/>
   </g>
   <g id="patch_4">
    <path d="M 57.332 237.16 
L 565.2 237.16 
" style="fill: none; stroke: #000000; stroke-width: 0.8; stroke-linejoin: miter; stroke-linecap: square"/>
   </g>
  </g>
 </g>
 <defs>
  <clipPath id="p0da9be776b">
   <rect x="57.332" y="10.8" width="507.868" height="226.36"/>
  </clipPath>
 </defs>
</svg>
